# xmcd
#
# Track frame offsets: 
#        182
#        11257
#        21007
#        32222
#        41565
#
# Disc length: 707 seconds
#
# Revision: 2
# Processed by: cddbd v1.5.1PL2 Copyright (c) Steve Scherf et al.
# Submitted via: ExactAudioCopy v0.95b3
#
DISCID=2f02c105
DTITLE=Captain Beefheart and His Magic Band - The Legendary A&M Sessions
DYEAR=1984
DGENRE=Blues-Rock
TTITLE0=Diddy Wah Diddy [1965/1966]
TTITLE1=Who Do You Think You're Fooling? [1965/1966]
TTITLE2=Moonchild [1966]
TTITLE3=Frying Pan [1966]
TTITLE4=Here I Am I Always Am [1966]
EXTD=Originally released as A&M 12" EP SP-12510 (1984).\nCD: Edsel Rec
EXTD=ords BLIMPCD902 (1992?1996.07.08?1998.11.10), EAN 5014757179020.
EXTT0=(Ellas McDaniel/Willie Dixon]\nRecorded late 1965 or early 1966 
EXTT0=(matrix 1182).\nOriginally released as A&M single 794-A (1966).\n
EXTT0=Don Van Vliet: vocal, harmonica\nDoug Moon, Richard Hepner: guit
EXTT0=ars\nJerry Handley: bass guitar\nAlex Snouffer: drums
EXTT1=(Don Van Vliet]\nRecorded late 1965 or early 1966 (matrix 1183).
EXTT1=\nOriginally released as A&M single 794-B (1966).\nDon Van Vliet
EXTT1=: vocal\nDoug Moon, Richard Hepner: guitars\nJerry Handley: bass
EXTT1=guitar\nAlex Snouffer: drums
EXTT2=(Dave Gates]\nRecorded late May or early June, 1966 (matrix 1228
EXTT2=).\nOriginally released as A&M single 818-A (1966).\nDon Van Vli
EXTT2=et: vocal, harmonica\nDoug Moon, David Gates: guitars\nJerry Han
EXTT2=dley: bass guitar\nAlex Snouffer: drums
EXTT3=(Don Van Vliet]\nRecorded late May or early June, 1966 (matrix 1
EXTT3=229).\nOriginally released as A&M single 818-B (1966).\nDon Van 
EXTT3=Vliet: vocal, harmonica\nDoug Moon, David Gates: guitars\nJerry 
EXTT3=Handley: bass guitar\nAlex Snouffer: drums
EXTT4=(Don Van Vliet]\nRecorded late May or early June, 1966.\nOrigina
EXTT4=lly released on A&M 12" EP SP-12510 (1984).\nDon Van Vliet: voca
EXTT4=l\nDoug Moon, David Gates: guitars\nJerry Handley: bass guitar\n
EXTT4=Alex Snouffer: drums
PLAYORDER=
